# xmcd
# 
# Track frame offsets:
#     150
#     20557
#     36569
#     55922
#     75340
#     94588
#     111080
#     130677
#     150563
#     172203
#     189865
# 
# Disc length: 2868
# 
# Revision: 1
# Processed by: cddbd v1.5.2PL0 Copyright (c) Steve Scherf et al.
# Submitted via: fre:ac v1.0.27
# 
DISCID=840b320b
DTITLE=ナオト・インティライミ - Viva The World
DYEAR=14
DGENRE=Pop
TTITLE0=Just let it go
TTITLE1=FUNTIME
TTITLE2=The World is ours!
TTITLE3=アレコレ
TTITLE4=Everlasting Love
TTITLE5=LIFE
TTITLE6=メトロポリス・ラプソディー
TTITLE7=線香花火
TTITLE8=花びら
TTITLE9=Ole!
TTITLE10=手紙
EXTD=
EXTT0=
EXTT1=
EXTT2=
EXTT3=
EXTT4=
EXTT5=
EXTT6=
EXTT7=
EXTT8=
EXTT9=
EXTT10=
PLAYORDER=
